<?xml version="1.0" standalone="no"?>
<!DOCTYPE svg PUBLIC "-//W3C//DTD SVG 20010904//EN"
 "http://www.w3.org/TR/2001/REC-SVG-20010904/DTD/svg10.dtd">
<svg version="1.0" xmlns="http://www.w3.org/2000/svg"
 width="812.000000pt" height="408.000000pt" viewBox="0 0 812.000000 408.000000"
 preserveAspectRatio="xMidYMid meet">

<g transform="translate(0.000000,408.000000) scale(0.100000,-0.100000)"
fill="#ffffff" stroke="none">
<path d="M3750 3719 c-254 -15 -521 -47 -740 -89 -117 -23 -377 -86 -415 -100
l-25 -10 0 -281 0 -281 23 5 c12 3 110 28 217 55 586 151 1242 195 1875 126
732 -80 1430 -342 1948 -732 120 -91 316 -260 376 -325 l24 -27 -68 -62 c-573
-528 -1359 -871 -2250 -982 -418 -52 -919 -49 -1335 9 -414 58 -843 177 -1236
344 -76 32 -140 58 -142 56 -1 -1 -3 -134 -3 -296 l0 -293 53 -24 c252 -113
681 -237 1018 -296 362 -63 581 -80 1015 -80 400 0 577 12 885 60 995 153
1883 591 2503 1234 63 65 154 166 202 225 l87 106 -88 117 c-112 148 -415 453
-586 590 -383 305 -861 556 -1363 716 -605 193 -1296 275 -1975 235z"/>
<path d="M1990 3078 l0 -218 210 0 210 0 0 218 0 217 -210 1 -210 1 0 -219z"/>
<path d="M1050 2890 l0 -120 120 0 120 0 0 120 0 120 -120 0 -120 0 0 -120z"/>
<path d="M3908 2925 c-94 -18 -189 -53 -254 -94 -48 -30 -48 -31 -19 -31 38 0
120 -22 166 -44 56 -26 136 -113 172 -185 30 -62 32 -72 32 -176 0 -99 -3
-116 -27 -168 -38 -80 -117 -161 -197 -200 -62 -30 -72 -32 -176 -32 -103 0
-114 2 -177 32 -63 29 -145 99 -181 152 -9 14 -19 22 -22 19 -3 -3 -8 -50 -12
-105 -19 -314 133 -633 381 -798 160 -106 297 -148 486 -148 260 1 467 88 650
274 198 202 286 493 235 782 -61 348 -287 600 -632 703 -111 33 -305 42 -425
19z m-205 -1019 c65 -27 116 -119 101 -183 -20 -87 -95 -153 -175 -153 -79 0
-160 69 -175 147 -24 130 123 242 249 189z"/>
<path d="M2560 2815 c0 -3 0 -90 0 -195 0 -104 0 -203 0 -220 l0 -30 225 0
225 0 0 225 0 225 -225 0 c-124 0 -225 -2 -225 -5z m137 -21 c-3 -3 -12 -4
-19 -1 -8 3 -5 6 6 6 11 1 17 -2 13 -5z"/>
<path d="M1484 2590 l1 -180 60 -1 c33 0 115 -1 183 -2 l122 -2 0 183 0 182
-183 0 -184 0 1 -180z"/>
<path d="M660 2400 l0 -110 115 0 115 0 0 110 0 110 -115 0 -115 0 0 -110z"/>
<path d="M1980 2065 l0 -295 290 0 290 0 0 295 0 295 -290 0 -290 0 0 -295z"/>
<path d="M1110 2139 l0 -179 175 0 175 0 0 178 0 177 -175 2 -175 1 0 -179z"/>
<path d="M230 2065 l0 -105 98 0 97 0 0 105 0 105 -97 0 -98 0 0 -105z"/>
<path d="M650 1760 l0 -110 115 0 115 0 0 110 0 110 -115 0 -115 0 0 -110z"/>
<path d="M1490 1610 c0 -85 -3 -165 -6 -177 l-6 -23 181 0 181 0 0 178 0 177
-175 0 -175 0 0 -155z"/>
<path d="M2556 1738 c-3 -13 -6 -114 -6 -225 l0 -203 230 0 230 0 0 225 0 225
-224 0 c-224 0 -224 0 -230 -22z"/>
<path d="M1050 1260 l0 -120 120 0 120 0 0 120 0 120 -120 0 -120 0 0 -120z
m210 94 c0 -2 -24 -4 -52 -3 -38 1 -46 3 -28 8 24 7 80 3 80 -5z m-115 -3 c-9
-8 -36 -10 -30 -2 2 4 11 8 20 8 8 0 13 -3 10 -6z"/>
</g>
</svg>
